<svg xmlns="http://www.w3.org/2000/svg" viewBox="0 0 523.8 478.4"><style>.a{fill:none;stroke-width:2;stroke:#FFF;}.b{fill:none;stroke:#FFF;}.c{fill:#8093AD;stroke:#FFF;}.d{fill:#FFF;}</style>
<g opacity="0.1"><polyline points="785.9 260.5 830.4 291.9 830.4 323.1 866.8 381.1 920.3 303.6 988.6 322.4 " class="a"/><polyline points="866.8 381.1 919.1 396.1 951.9 410.8 " class="a"/><polyline points="830.4 323.1 785.3 318.2 793 463.3 749.2 463 " class="a"/>
<polyline points="793 463.3 832.4 431.4 861.6 466.3 898.4 435.6 937.4 485.9 934.4 548 " class="a"/><polyline points="1002.4 513 972.3 463 1025.6 476.9 " class="a"/><line x1="892.3" y1="259.3" x2="920.3" y2="303.6" class="a"/><line x1="790.2" y1="553.1" x2="789.8" y2="589.1" class="a"/><polyline points="931.8 650.4 985.7 624 987.7 554.5 1019.7 537.1 " class="a"/><polyline points="1072.9 561.5 1081.5 584.1 1090.4 625.5 1132.5 653.6 " class="a"/><line x1="1049.2" y1="645.8" x2="1090.4" y2="625.5" class="a"/><polyline points="1109.5 538 1154.9 531.9 1182.6 504.5 1178.6 569.3 1151.2 599.7 " class="a"/><polyline points="798 351.1 785.3 318.2 778.3 364.7 " class="a"/><polyline points="892.3 259.3 845.7 264.7 827.5 255 " class="a"/><line x1="951.9" y1="410.8" x2="951.9" y2="328.8" class="a"/><line x1="832.4" y1="431.4" x2="860" y2="410.8" class="a"/><line x1="769.8" y1="408" x2="793" y2="463.3" class="a"/><polyline points="937.4 485.9 912.4 480.9 921.1 498.3 891 514.4 934.4 548 " class="a"/><line x1="871.8" y1="535.8" x2="891" y2="514.4" class="a"/><polyline points="976.6 513.8 960.4 530.7 987.7 554.5 " class="a"/><polyline points="985.7 624 957.9 589.1 919.1 568.8 890.2 569.3 884.9 608.2 " class="a"/><line x1="956.9" y1="434.4" x2="972.3" y2="463" class="a"/><polyline points="1025.6 476.9 1050.9 481.9 1106.9 481.1 1106.9 431.5 1125 450.9 " class="a"/><line x1="1101" y1="415" x2="1106.9" y2="431.5" class="a"/><line x1="1081.5" y1="584.1" x2="1043.7" y2="620.5" class="a"/><line x1="1075.3" y1="672.8" x2="1090.4" y2="625.5" class="a"/><polyline points="1154.9 531.9 1125.3 553.8 1114.6 582.2 " class="a"/><polyline points="1193 599.7 1178.6 569.3 1227.8 561.5 " class="a"/><line x1="1200.9" y1="475.9" x2="1182.6" y2="504.5" class="a"/><line x1="817" y1="264" x2="827.5" y2="255" class="b"/><line x1="920.3" y1="303.6" x2="936.1" y2="276.4" class="b"/><line x1="988.6" y1="322.4" x2="999" y2="299.6" class="b"/><line x1="951.9" y1="410.8" x2="980.1" y2="367.7" class="b"/><line x1="884.9" y1="608.2" x2="893" y2="618.4" class="b"/><line x1="890.2" y1="569.3" x2="859.9" y2="559.8" class="b"/><polyline points="896.4 545.2 891 514.4 868.2 512.4 " class="b"/><line x1="931.8" y1="650.4" x2="901.5" y2="636.7" class="b"/><line x1="1019.7" y1="537.1" x2="1036.2" y2="510.5" class="c"/><polyline points="1056.9 458.6 1050.9 481.9 1059 497 " class="b"/><polyline points="1124.4 496.7 1106.9 481.1 1131.7 470.7 " class="b"/><line x1="1125" y1="450.9" x2="1153.2" y2="453.9" class="b"/><line x1="1132.5" y1="653.6" x2="1142.7" y2="630.9" class="b"/><polyline points="760.9 541.3 790.2 553.1 805 573.8 " class="b"/><line x1="793.8" y1="531.3" x2="790.2" y2="553.1" class="b"/><circle cx="785.9" cy="260.5" r="7.7" class="d"/><circle cx="830.4" cy="291.9" r="7.7" class="d"/><circle cx="830.4" cy="323.1" r="7.7" class="d"/><circle cx="793" cy="463.3" r="7.7" class="d"/><circle cx="832.4" cy="431.4" r="7.7" class="d"/><circle cx="861.6" cy="466.3" r="7.7" class="d"/><circle cx="785.3" cy="318.2" r="7.7" class="d"/><circle cx="866.8" cy="381.1" r="7.7" class="d"/><circle cx="920.3" cy="303.6" r="7.7" class="d"/><circle cx="892.3" cy="259.3" r="7.7" class="d"/><circle cx="827.5" cy="255" r="5" class="d"/><circle cx="845.7" cy="264.7" r="5" class="d"/><circle cx="798" cy="351.1" r="5" class="d"/><circle cx="817" cy="264" r="2" class="d"/><circle cx="936.1" cy="276.4" r="2" class="d"/><circle cx="999" cy="299.6" r="2" class="d"/><circle cx="980.1" cy="367.7" r="2" class="d"/><circle cx="868.2" cy="512.4" r="2" class="d"/><circle cx="896.4" cy="545.2" r="2" class="d"/><circle cx="859.9" cy="559.8" r="2" class="d"/><circle cx="805" cy="573.8" r="2" class="d"/><circle cx="793.8" cy="531.3" r="2" class="d"/><circle cx="760.9" cy="541.3" r="2" class="d"/><circle cx="893" cy="618.4" r="2" class="d"/><circle cx="901.5" cy="636.7" r="2" class="d"/><circle cx="1036.2" cy="510.5" r="2" class="d"/><circle cx="1059" cy="497" r="2" class="d"/><circle cx="1056.9" cy="458.6" r="2" class="d"/><circle cx="1124.4" cy="496.7" r="2" class="d"/><circle cx="1131.7" cy="470.7" r="2" class="d"/><circle cx="1153.2" cy="453.9" r="2" class="d"/><circle cx="1142.7" cy="630.9" r="2" class="d"/><circle cx="778.3" cy="364.7" r="5" class="d"/><circle cx="860" cy="410.8" r="5" class="d"/><circle cx="769.8" cy="408" r="5" class="d"/><circle cx="912.4" cy="480.9" r="5" class="d"/><circle cx="891" cy="514.4" r="5" class="d"/><circle cx="871.8" cy="535.8" r="5" class="d"/><circle cx="890.2" cy="569.3" r="5" class="d"/><circle cx="884.9" cy="608.2" r="5" class="d"/><circle cx="960.4" cy="530.7" r="5" class="d"/><circle cx="919.1" cy="568.8" r="5" class="d"/><circle cx="957.9" cy="589.1" r="5" class="d"/><circle cx="976.6" cy="513.8" r="5" class="d"/><circle cx="921.1" cy="498.3" r="5" class="d"/><circle cx="951.9" cy="328.8" r="5" class="d"/><circle cx="1101" cy="415" r="5" class="d"/><circle cx="956.9" cy="434.4" r="5" class="d"/><circle cx="1043.7" cy="620.5" r="5" class="d"/><circle cx="1075.3" cy="672.8" r="5" class="d"/><circle cx="1114.6" cy="582.2" r="5" class="d"/><circle cx="1227.8" cy="561.5" r="5" class="d"/><circle cx="1193" cy="599.7" r="5" class="d"/><circle cx="1200.9" cy="475.9" r="5" class="d"/><circle cx="1125.3" cy="553.8" r="5" class="d"/><circle cx="1050.9" cy="481.9" r="5" class="d"/><circle cx="1106.9" cy="481.1" r="5" class="d"/><circle cx="1106.9" cy="431.5" r="5" class="d"/><circle cx="1125" cy="450.9" r="5" class="d"/><circle cx="988.6" cy="322.4" r="7.7" class="d"/><circle cx="951.9" cy="410.8" r="7.7" class="d"/><circle cx="898.4" cy="435.6" r="7.7" class="d"/><circle cx="972.3" cy="463" r="7.7" class="d"/><circle cx="1025.6" cy="476.9" r="7.7" class="d"/><circle cx="1002.4" cy="513" r="7.7" class="d"/><circle cx="937.4" cy="485.9" r="7.7" class="d"/><circle cx="790.2" cy="553.1" r="7.7" class="d"/><circle cx="789.8" cy="589.1" r="7.7" class="d"/><circle cx="934.4" cy="548" r="7.7" class="d"/><circle cx="987.7" cy="554.5" r="7.7" class="d"/><circle cx="985.7" cy="624" r="7.7" class="d"/><circle cx="931.8" cy="650.4" r="7.7" class="d"/><circle cx="1081.5" cy="584.1" r="7.7" class="d"/><circle cx="1072.9" cy="561.5" r="7.7" class="d"/><circle cx="1019.7" cy="537.1" r="7.7" class="d"/><circle cx="1109.5" cy="538" r="7.7" class="d"/><circle cx="1132.5" cy="653.6" r="7.7" class="d"/><circle cx="1090.4" cy="625.5" r="7.7" class="d"/><circle cx="1049.2" cy="645.8" r="7.7" class="d"/><circle cx="1151.2" cy="599.7" r="7.7" class="d"/><circle cx="1154.9" cy="531.9" r="7.7" class="d"/><circle cx="1182.6" cy="504.5" r="7.7" class="d"/><circle cx="1178.6" cy="569.3" r="7.7" class="d"/><circle cx="919.1" cy="396.1" r="11.6" class="d"/></g><polyline points="11.9 436 47.2 394 83.9 343.3 143.9 350 181.2 416 230.3 438.1 " class="a"/><polyline points="143.9 350 201.2 306 263.2 340.7 " class="a"/><polyline points="83.9 343.3 53.9 296.7 59.2 234.7 15.2 187.3 " class="a"/><polyline points="59.2 234.7 106.6 244 149.2 209.3 201.2 241.3 245.2 209.3 254.6 129.3 " class="a"/><polyline points="309.9 209.3 304.6 257.3 350.6 270 " class="a"/><line x1="137.8" y1="462" x2="181.2" y2="416" class="a"/><line x1="74.6" y1="82.7" x2="83.9" y2="23.3" class="a"/><polyline points="287.9 23.3 328.6 73.3 319.2 134 353.2 162 " class="a"/><polyline points="421.9 145.3 420.5 88.6 450.6 53.3 513.9 50 " class="a"/><line x1="399.8" y1="9.3" x2="450.6" y2="53.3" class="a"/><polyline points="9.3 152 60.7 137.3 102 161.3 130.7 104.7 118 49.3 " class="a"/><polyline points="47.2 331.3 53.9 296.7 26.9 310.7 " class="a"/><polyline points="137.8 462 97.2 452.7 56.6 462 " class="a"/><line x1="263.2" y1="340.7" x2="234.9" y2="370.8" class="a"/><line x1="106.6" y1="244" x2="134.6" y2="274.8" class="a"/><line x1="26.9" y1="257.3" x2="59.2" y2="234.7" class="a"/><polyline points="245.2 209.3 212.9 203.8 232.4 183.3 221.9 156.8 254.6 129.3 " class="a"/><line x1="177.4" y1="129.3" x2="221.9" y2="156.8" class="a"/><polyline points="282.9 180.3 291.9 145.3 319.2 134 " class="a"/><polyline points="328.6 73.3 295.2 94.7 245.2 85.3 194.4 92 179.9 53.3 " class="a"/><line x1="276.8" y1="284.8" x2="304.6" y2="257.3" class="a"/><polyline points="350.6 270 377.4 234.7 427.4 253.3 414.4 296.7 438.9 331.3 " class="a"/><line x1="368.4" y1="310.7" x2="414.4" y2="296.7" class="a"/><line x1="420.5" y1="88.6" x2="374.5" y2="85.3" class="a"/><line x1="450.6" y1="14" x2="450.6" y2="53.3" class="a"/><polyline points="60.7 137.3 47 98.6 23.5 49.3 " class="a"/><polyline points="161.7 110.8 130.7 104.7 149.5 76 " class="a"/><line x1="140" y1="150.2" x2="102" y2="161.3" class="a"/><line x1="49.6" y1="439" x2="56.6" y2="462" class="b"/><polyline points="103.3 429.3 97.2 452.7 109.4 468.1 " class="b"/><line x1="181.2" y1="416" x2="194.4" y2="444.5" class="b"/><line x1="230.3" y1="438.1" x2="233.3" y2="476" class="b"/><line x1="263.2" y1="340.7" x2="295.2" y2="359.3" class="b"/><line x1="15.2" y1="187.3" x2="37.9" y2="173.8" class="b"/><line x1="179.9" y1="53.3" x2="191.9" y2="43.1" class="b"/><line x1="194.4" y1="92" x2="168.9" y2="98.1" class="b"/><polyline points="209.2 134 221.9 156.8 200.5 176.2 " class="b"/><line x1="287.9" y1="23.3" x2="313.9" y2="20.1" class="b"/><line x1="353.2" y1="162" x2="377.4" y2="171.3" class="c"/><polyline points="390.5 257.3 377.4 234.7 390.5 218.7 " class="b"/><polyline points="450.6 250.7 427.4 253.3 444.5 284.8 " class="b"/><line x1="513.9" y1="50" x2="520.8" y2="79.2" class="b"/><polyline points="47.2 97.1 74.6 82.7 106.3 82.7 " class="b"/><line x1="83.9" y1="116.7" x2="74.6" y2="82.7" class="b"/><circle cx="11.9" cy="436" r="9.3" class="d"/><circle cx="47.2" cy="394" r="9.3" class="d"/><circle cx="83.9" cy="343.3" r="9.3" class="d"/><circle cx="59.2" cy="234.7" r="9.3" class="d"/><circle cx="15.2" cy="187.3" r="9.3" class="d"/><circle cx="106.6" cy="244" r="9.3" class="d"/><circle cx="149.2" cy="209.3" r="9.3" class="d"/><circle cx="53.9" cy="296.7" r="9.3" class="d"/><circle cx="143.9" cy="350" r="9.3" class="d"/><circle cx="181.2" cy="416" r="9.3" class="d"/><circle cx="137.8" cy="462" r="9.3" class="d"/><circle cx="56.6" cy="462" r="6.1" class="d"/><circle cx="97.2" cy="452.7" r="6.1" class="d"/><circle cx="47.2" cy="331.3" r="6.1" class="d"/><circle cx="49.6" cy="439" r="2.4" class="d"/><circle cx="109.4" cy="468.1" r="2.4" class="d"/><circle cx="103.3" cy="429.3" r="2.4" class="d"/><circle cx="194.4" cy="444.5" r="2.4" class="d"/><circle cx="233.3" cy="476" r="2.4" class="d"/><circle cx="295.2" cy="359.3" r="2.4" class="d"/><circle cx="200.5" cy="176.2" r="2.4" class="d"/><circle cx="209.2" cy="134" r="2.4" class="d"/><circle cx="168.9" cy="98.1" r="2.4" class="d"/><circle cx="106.3" cy="82.7" r="2.4" class="d"/><circle cx="83.9" cy="116.7" r="2.4" class="d"/><circle cx="47.2" cy="97.1" r="2.4" class="d"/><circle cx="191.9" cy="43.1" r="2.4" class="d"/><circle cx="313.9" cy="20.1" r="2.4" class="d"/><circle cx="377.4" cy="171.3" r="2.4" class="d"/><circle cx="390.5" cy="218.7" r="2.4" class="d"/><circle cx="390.5" cy="257.3" r="2.4" class="d"/><circle cx="450.6" cy="250.7" r="2.4" class="d"/><circle cx="444.5" cy="284.8" r="2.4" class="d"/><circle cx="520.8" cy="79.2" r="2.4" class="d"/><circle cx="37.9" cy="173.8" r="2.4" class="d"/><circle cx="26.9" cy="310.7" r="6.1" class="d"/><circle cx="134.6" cy="274.8" r="6.1" class="d"/><circle cx="26.9" cy="257.3" r="6.1" class="d"/><circle cx="212.9" cy="203.8" r="6.1" class="d"/><circle cx="221.9" cy="156.8" r="6.1" class="d"/><circle cx="177.4" cy="129.3" r="6.1" class="d"/><circle cx="194.4" cy="92" r="6.1" class="d"/><circle cx="179.9" cy="53.3" r="6.1" class="d"/><circle cx="291.9" cy="145.3" r="6.1" class="d"/><circle cx="245.2" cy="85.3" r="6.1" class="d"/><circle cx="295.2" cy="94.7" r="6.1" class="d"/><circle cx="282.9" cy="180.3" r="6.1" class="d"/><circle cx="232.4" cy="183.3" r="6.1" class="d"/><circle cx="234.9" cy="370.8" r="6.1" class="d"/><circle cx="368.4" cy="310.7" r="6.1" class="d"/><circle cx="276.8" cy="284.8" r="6.1" class="d"/><circle cx="374.5" cy="85.3" r="6.1" class="d"/><circle cx="450.6" cy="14" r="6.1" class="d"/><circle cx="23.5" cy="49.3" r="6.1" class="d"/><circle cx="149.5" cy="76" r="6.1" class="d"/><circle cx="161.7" cy="110.8" r="6.1" class="d"/><circle cx="140" cy="150.2" r="6.1" class="d"/><circle cx="47" cy="98.6" r="6.1" class="d"/><circle cx="377.4" cy="234.7" r="6.1" class="d"/><circle cx="427.4" cy="253.3" r="6.1" class="d"/><circle cx="414.4" cy="296.7" r="6.1" class="d"/><circle cx="438.9" cy="331.3" r="6.1" class="d"/><circle cx="230.3" cy="438.1" r="9.3" class="d"/><circle cx="263.2" cy="340.7" r="9.3" class="d"/><circle cx="201.2" cy="241.3" r="9.3" class="d"/><circle cx="304.6" cy="257.3" r="9.3" class="d"/><circle cx="350.6" cy="270" r="9.3" class="d"/><circle cx="309.9" cy="209.3" r="9.3" class="d"/><circle cx="245.2" cy="209.3" r="9.3" class="d"/><circle cx="74.6" cy="82.7" r="9.3" class="d"/><circle cx="83.9" cy="23.3" r="9.3" class="d"/><circle cx="254.6" cy="129.3" r="9.3" class="d"/><circle cx="319.2" cy="134" r="9.3" class="d"/><circle cx="328.6" cy="73.3" r="9.3" class="d"/><circle cx="287.9" cy="23.3" r="9.3" class="d"/><circle cx="420.5" cy="88.6" r="9.3" class="d"/><circle cx="421.9" cy="145.3" r="9.3" class="d"/><circle cx="353.2" cy="162" r="9.3" class="d"/><circle cx="9.3" cy="152" r="9.3" class="d"/><circle cx="513.9" cy="50" r="9.3" class="d"/><circle cx="450.6" cy="53.3" r="9.3" class="d"/><circle cx="399.8" cy="9.3" r="9.3" class="d"/><circle cx="118" cy="49.3" r="9.3" class="d"/><circle cx="60.7" cy="137.3" r="9.3" class="d"/><circle cx="102" cy="161.3" r="9.3" class="d"/><circle cx="130.7" cy="104.7" r="9.3" class="d"/><circle cx="201.2" cy="306" r="14" class="d"/><line x1="276.8" y1="284.8" x2="263.2" y2="340.7" class="a"/><line x1="201.2" y1="241.3" x2="201.2" y2="306" class="a"/><line x1="102" y1="161.3" x2="149.2" y2="209.3" class="a"/><line x1="353.2" y1="162" x2="309.9" y2="209.3" class="a"/><line x1="483.5" y1="367.7" x2="503.8" y2="335.5" class="a"/><polyline points="521.8 368.8 483.5 367.7 461.8 381.5 " class="a"/><line x1="491.8" y1="394" x2="483.5" y2="367.7" class="b"/><circle cx="461.8" cy="381.5" r="6.1" class="d"/><circle cx="413.7" cy="366.8" r="6.1" class="d"/><circle cx="491.8" cy="394" r="2" class="d"/><circle cx="521.8" cy="368.8" r="2" class="d"/><circle cx="483.5" cy="367.7" r="7.7" class="d"/><circle cx="503.8" cy="335.5" r="7.7" class="d"/><polyline points="438.9 331.3 413.7 366.8 461.8 381.5 " class="a"/></svg>